<?xml version="1.0" encoding="UTF-8" standalone="no"?>
<!DOCTYPE svg PUBLIC "-//W3C//DTD SVG 1.1//EN"
 "http://www.w3.org/Graphics/SVG/1.1/DTD/svg11.dtd">
<!-- Generated by graphviz version 2.40.1 (20161225.0304)
 -->
<!-- Title: G Pages: 1 -->
<svg width="1101pt" height="569pt"
 viewBox="0.00 0.00 1101.39 568.83" xmlns="http://www.w3.org/2000/svg" xmlns:xlink="http://www.w3.org/1999/xlink">
<g id="graph0" class="graph" transform="scale(1 1) rotate(0) translate(4 564.8264)">
<title>G</title>
<polygon fill="#ffffff" stroke="transparent" points="-4,4 -4,-564.8264 1097.3852,-564.8264 1097.3852,4 -4,4"/>
<g id="clust1" class="cluster">
<title>cluster_main</title>
<polygon fill="none" stroke="#000000" points="8,-93 8,-542 819.1967,-542 819.1967,-93 8,-93"/>
</g>
<g id="clust2" class="cluster">
<title>cluster_0</title>
<polygon fill="#d3d3d3" stroke="#d3d3d3" points="16,-313 16,-448 162,-448 162,-313 16,-313"/>
<text text-anchor="middle" x="89" y="-432.8" font-family="Helvetica,sans-Serif" font-size="14.00" fill="#000000">Input data</text>
</g>
<g id="clust3" class="cluster">
<title>cluster_1</title>
<polygon fill="#d3d3d3" stroke="#d3d3d3" points="386,-415 386,-524 628,-524 628,-415 386,-415"/>
<text text-anchor="middle" x="507" y="-508.8" font-family="Helvetica,sans-Serif" font-size="14.00" fill="#000000">PyRadiomics settings for T2W</text>
</g>
<g id="clust4" class="cluster">
<title>cluster_2</title>
<polygon fill="#d3d3d3" stroke="#d3d3d3" points="386,-298 386,-407 628,-407 628,-298 386,-298"/>
<text text-anchor="middle" x="507" y="-391.8" font-family="Helvetica,sans-Serif" font-size="14.00" fill="#000000">PyRadiomics settings for ADC</text>
</g>
<g id="clust5" class="cluster">
<title>cluster_3</title>
<polygon fill="#d3d3d3" stroke="#d3d3d3" points="386,-181 386,-290 628,-290 628,-181 386,-181"/>
<text text-anchor="middle" x="507" y="-274.8" font-family="Helvetica,sans-Serif" font-size="14.00" fill="#000000">PyRadiomics settings for HBV</text>
</g>
<g id="clust6" class="cluster">
<title>cluster_4</title>
<polygon fill="#d3d3d3" stroke="#d3d3d3" points="648,-8 648,-85 899,-85 899,-8 648,-8"/>
<text text-anchor="middle" x="773.5" y="-69.8" font-family="Helvetica,sans-Serif" font-size="14.00" fill="#000000">Outputs from other input data</text>
</g>
<!-- mask -->
<g id="node1" class="node">
<title>mask</title>
<polygon fill="none" stroke="#000000" points="150,-417 28,-417 28,-379 150,-379 150,-417"/>
<text text-anchor="middle" x="89" y="-401.8" font-family="Helvetica,sans-Serif" font-size="14.00" fill="#000000">Mask with</text>
<text text-anchor="middle" x="89" y="-386.8" font-family="Helvetica,sans-Serif" font-size="14.00" fill="#000000">annotated lesions</text>
</g>
<!-- dataset -->
<g id="node2" class="node">
<title>dataset</title>
<polygon fill="none" stroke="#000000" points="24,-322 24,-360 154,-360 154,-322 24,-322"/>
<text text-anchor="middle" x="89" y="-344.8" font-family="Helvetica,sans-Serif" font-size="14.00" fill="#000000">MRI sequences</text>
<text text-anchor="middle" x="89" y="-329.8" font-family="Helvetica,sans-Serif" font-size="14.00" fill="#000000"> (T2W, ADC, HBV)</text>
</g>
<!-- spacing -->
<g id="node3" class="node">
<title>spacing</title>
<polygon fill="none" stroke="#000000" points="433.5,-101.5 433.5,-170.5 580.5,-170.5 580.5,-101.5 433.5,-101.5"/>
<text text-anchor="middle" x="484" y="-132.3" font-family="Helvetica,sans-Serif" font-size="14.00" fill="#000000">Voxel spacing</text>
<polyline fill="none" stroke="#000000" points="534.5,-101.5 534.5,-170.5 "/>
<text text-anchor="middle" x="557.5" y="-155.3" font-family="Helvetica,sans-Serif" font-size="14.00" fill="#000000">T2W</text>
<polyline fill="none" stroke="#000000" points="534.5,-147.5 580.5,-147.5 "/>
<text text-anchor="middle" x="557.5" y="-132.3" font-family="Helvetica,sans-Serif" font-size="14.00" fill="#000000">ADC</text>
<polyline fill="none" stroke="#000000" points="534.5,-124.5 580.5,-124.5 "/>
<text text-anchor="middle" x="557.5" y="-109.3" font-family="Helvetica,sans-Serif" font-size="14.00" fill="#000000">HBV</text>
</g>
<!-- dataset&#45;&gt;spacing -->
<g id="edge1" class="edge">
<title>dataset&#45;&gt;spacing</title>
<path fill="none" stroke="#000000" d="M119.2897,-321.8969C172.0063,-289.1979 284.6925,-221.7089 386,-177 397.9659,-171.7192 410.8394,-166.6958 423.5675,-162.0914"/>
<polygon fill="#000000" stroke="#000000" points="425.0006,-165.2968 433.2549,-158.6548 422.6602,-158.6996 425.0006,-165.2968"/>
</g>
<!-- voxel_information -->
<g id="node4" class="node">
<title>voxel_information</title>
<polygon fill="none" stroke="#000000" points="190,-306.5 190,-375.5 358,-375.5 358,-306.5 190,-306.5"/>
<text text-anchor="middle" x="251" y="-337.3" font-family="Helvetica,sans-Serif" font-size="14.00" fill="#000000">Voxel information</text>
<polyline fill="none" stroke="#000000" points="312,-306.5 312,-375.5 "/>
<text text-anchor="middle" x="335" y="-360.3" font-family="Helvetica,sans-Serif" font-size="14.00" fill="#000000">T2W</text>
<polyline fill="none" stroke="#000000" points="312,-352.5 358,-352.5 "/>
<text text-anchor="middle" x="335" y="-337.3" font-family="Helvetica,sans-Serif" font-size="14.00" fill="#000000">ADC</text>
<polyline fill="none" stroke="#000000" points="312,-329.5 358,-329.5 "/>
<text text-anchor="middle" x="335" y="-314.3" font-family="Helvetica,sans-Serif" font-size="14.00" fill="#000000">HBV</text>
</g>
<!-- dataset&#45;&gt;voxel_information -->
<g id="edge2" class="edge">
<title>dataset&#45;&gt;voxel_information</title>
<path fill="none" stroke="#000000" d="M154.2241,-341C162.5236,-341 171.1449,-341 179.7861,-341"/>
<polygon fill="#000000" stroke="#000000" points="179.9212,-344.5001 189.9212,-341 179.9212,-337.5001 179.9212,-344.5001"/>
</g>
<!-- output -->
<g id="node8" class="node">
<title>output</title>
<ellipse fill="none" stroke="#000000" cx="773.5" cy="-282" rx="37.8943" ry="18"/>
<text text-anchor="middle" x="773.5" y="-278.3" font-family="Helvetica,sans-Serif" font-size="14.00" fill="#000000">Output</text>
</g>
<!-- dataset&#45;&gt;output -->
<g id="edge9" class="edge">
<title>dataset&#45;&gt;output</title>
<path fill="none" stroke="#000000" d="M162,-370C269.1352,-428.0045 269.8723,-491.1649 386,-528 488.5217,-560.5193 534.5726,-581.2871 628,-528 711.6441,-480.2929 752.0858,-363.5513 766.7588,-309.8542"/>
<polygon fill="#000000" stroke="#000000" points="770.1932,-310.5561 769.355,-299.9945 763.4239,-308.7737 770.1932,-310.5561"/>
</g>
<!-- spacing&#45;&gt;output -->
<g id="edge10" class="edge">
<title>spacing:f0&#45;&gt;output</title>
<path fill="none" stroke="#000000" d="M581,-159C653.4521,-159 720.5274,-221.636 753.0045,-257.513"/>
<polygon fill="#000000" stroke="#000000" points="750.5189,-259.9856 759.7669,-265.1553 755.7613,-255.3468 750.5189,-259.9856"/>
</g>
<!-- settings_t2w -->
<g id="node5" class="node">
<title>settings_t2w</title>
<polygon fill="none" stroke="#000000" points="394,-423.5 394,-492.5 620,-492.5 620,-423.5 394,-423.5"/>
<text text-anchor="middle" x="434.5" y="-477.3" font-family="Helvetica,sans-Serif" font-size="14.00" fill="#000000">Original</text>
<polyline fill="none" stroke="#000000" points="475,-469.5 475,-492.5 "/>
<text text-anchor="middle" x="517" y="-477.3" font-family="Helvetica,sans-Serif" font-size="14.00" fill="#000000">Wavelet</text>
<polyline fill="none" stroke="#000000" points="559,-469.5 559,-492.5 "/>
<text text-anchor="middle" x="589.5" y="-477.3" font-family="Helvetica,sans-Serif" font-size="14.00" fill="#000000">LoG</text>
<polyline fill="none" stroke="#000000" points="394,-469.5 620,-469.5 "/>
<text text-anchor="middle" x="424" y="-454.3" font-family="Helvetica,sans-Serif" font-size="14.00" fill="#000000">Square</text>
<polyline fill="none" stroke="#000000" points="454,-446.5 454,-469.5 "/>
<text text-anchor="middle" x="498.5" y="-454.3" font-family="Helvetica,sans-Serif" font-size="14.00" fill="#000000">SquareRoot</text>
<polyline fill="none" stroke="#000000" points="543,-446.5 543,-469.5 "/>
<text text-anchor="middle" x="581.5" y="-454.3" font-family="Helvetica,sans-Serif" font-size="14.00" fill="#000000">Logarithm</text>
<polyline fill="none" stroke="#000000" points="394,-446.5 620,-446.5 "/>
<text text-anchor="middle" x="439" y="-431.3" font-family="Helvetica,sans-Serif" font-size="14.00" fill="#000000">Exponential</text>
<polyline fill="none" stroke="#000000" points="484,-423.5 484,-446.5 "/>
<text text-anchor="middle" x="520.5" y="-431.3" font-family="Helvetica,sans-Serif" font-size="14.00" fill="#000000">Gradient</text>
<polyline fill="none" stroke="#000000" points="557,-423.5 557,-446.5 "/>
<text text-anchor="middle" x="588.5" y="-431.3" font-family="Helvetica,sans-Serif" font-size="14.00" fill="#000000">LBP2D</text>
</g>
<!-- voxel_information&#45;&gt;settings_t2w -->
<g id="edge3" class="edge">
<title>voxel_information:f0&#45;&gt;settings_t2w</title>
<path fill="none" stroke="#000000" d="M358,-364C379.4654,-364 370.3837,-388.3929 384.1697,-407.6675"/>
<polygon fill="#000000" stroke="#000000" points="381.6199,-410.0652 390.9934,-415.0036 386.7454,-405.2976 381.6199,-410.0652"/>
</g>
<!-- settings_adc -->
<g id="node6" class="node">
<title>settings_adc</title>
<polygon fill="none" stroke="#000000" points="394,-306.5 394,-375.5 620,-375.5 620,-306.5 394,-306.5"/>
<text text-anchor="middle" x="434.5" y="-360.3" font-family="Helvetica,sans-Serif" font-size="14.00" fill="#000000">Original</text>
<polyline fill="none" stroke="#000000" points="475,-352.5 475,-375.5 "/>
<text text-anchor="middle" x="517" y="-360.3" font-family="Helvetica,sans-Serif" font-size="14.00" fill="#000000">Wavelet</text>
<polyline fill="none" stroke="#000000" points="559,-352.5 559,-375.5 "/>
<text text-anchor="middle" x="589.5" y="-360.3" font-family="Helvetica,sans-Serif" font-size="14.00" fill="#000000">LoG</text>
<polyline fill="none" stroke="#000000" points="394,-352.5 620,-352.5 "/>
<text text-anchor="middle" x="424" y="-337.3" font-family="Helvetica,sans-Serif" font-size="14.00" fill="#000000">Square</text>
<polyline fill="none" stroke="#000000" points="454,-329.5 454,-352.5 "/>
<text text-anchor="middle" x="498.5" y="-337.3" font-family="Helvetica,sans-Serif" font-size="14.00" fill="#000000">SquareRoot</text>
<polyline fill="none" stroke="#000000" points="543,-329.5 543,-352.5 "/>
<text text-anchor="middle" x="581.5" y="-337.3" font-family="Helvetica,sans-Serif" font-size="14.00" fill="#000000">Logarithm</text>
<polyline fill="none" stroke="#000000" points="394,-329.5 620,-329.5 "/>
<text text-anchor="middle" x="439" y="-314.3" font-family="Helvetica,sans-Serif" font-size="14.00" fill="#000000">Exponential</text>
<polyline fill="none" stroke="#000000" points="484,-306.5 484,-329.5 "/>
<text text-anchor="middle" x="520.5" y="-314.3" font-family="Helvetica,sans-Serif" font-size="14.00" fill="#000000">Gradient</text>
<polyline fill="none" stroke="#000000" points="557,-306.5 557,-329.5 "/>
<text text-anchor="middle" x="588.5" y="-314.3" font-family="Helvetica,sans-Serif" font-size="14.00" fill="#000000">LBP2D</text>
</g>
<!-- voxel_information&#45;&gt;settings_adc -->
<g id="edge4" class="edge">
<title>voxel_information:f1&#45;&gt;settings_adc</title>
<path fill="none" stroke="#000000" d="M358,-341C366.3667,-341 374.9977,-341 383.6926,-341"/>
<polygon fill="#000000" stroke="#000000" points="376.0002,-344.5004 386,-341 375.9998,-337.5004 376.0002,-344.5004"/>
</g>
<!-- settings_hbv -->
<g id="node7" class="node">
<title>settings_hbv</title>
<polygon fill="none" stroke="#000000" points="394,-189.5 394,-258.5 620,-258.5 620,-189.5 394,-189.5"/>
<text text-anchor="middle" x="434.5" y="-243.3" font-family="Helvetica,sans-Serif" font-size="14.00" fill="#000000">Original</text>
<polyline fill="none" stroke="#000000" points="475,-235.5 475,-258.5 "/>
<text text-anchor="middle" x="517" y="-243.3" font-family="Helvetica,sans-Serif" font-size="14.00" fill="#000000">Wavelet</text>
<polyline fill="none" stroke="#000000" points="559,-235.5 559,-258.5 "/>
<text text-anchor="middle" x="589.5" y="-243.3" font-family="Helvetica,sans-Serif" font-size="14.00" fill="#000000">LoG</text>
<polyline fill="none" stroke="#000000" points="394,-235.5 620,-235.5 "/>
<text text-anchor="middle" x="424" y="-220.3" font-family="Helvetica,sans-Serif" font-size="14.00" fill="#000000">Square</text>
<polyline fill="none" stroke="#000000" points="454,-212.5 454,-235.5 "/>
<text text-anchor="middle" x="498.5" y="-220.3" font-family="Helvetica,sans-Serif" font-size="14.00" fill="#000000">SquareRoot</text>
<polyline fill="none" stroke="#000000" points="543,-212.5 543,-235.5 "/>
<text text-anchor="middle" x="581.5" y="-220.3" font-family="Helvetica,sans-Serif" font-size="14.00" fill="#000000">Logarithm</text>
<polyline fill="none" stroke="#000000" points="394,-212.5 620,-212.5 "/>
<text text-anchor="middle" x="439" y="-197.3" font-family="Helvetica,sans-Serif" font-size="14.00" fill="#000000">Exponential</text>
<polyline fill="none" stroke="#000000" points="484,-189.5 484,-212.5 "/>
<text text-anchor="middle" x="520.5" y="-197.3" font-family="Helvetica,sans-Serif" font-size="14.00" fill="#000000">Gradient</text>
<polyline fill="none" stroke="#000000" points="557,-189.5 557,-212.5 "/>
<text text-anchor="middle" x="588.5" y="-197.3" font-family="Helvetica,sans-Serif" font-size="14.00" fill="#000000">LBP2D</text>
</g>
<!-- voxel_information&#45;&gt;settings_hbv -->
<g id="edge5" class="edge">
<title>voxel_information:f2&#45;&gt;settings_hbv</title>
<path fill="none" stroke="#000000" d="M358,-318C371.7013,-318 372.7173,-307.8516 383.8464,-296.6466"/>
<polygon fill="#000000" stroke="#000000" points="386.3477,-299.1159 391.74,-289.9959 381.8373,-293.7627 386.3477,-299.1159"/>
</g>
<!-- settings_t2w&#45;&gt;output -->
<g id="edge6" class="edge">
<title>settings_t2w&#45;&gt;output</title>
<path fill="none" stroke="#000000" d="M621.1813,-415.0011C623.4945,-413.6945 625.7703,-412.3607 628,-411 676.7296,-381.2624 724.5683,-334.5247 751.4309,-306.2213"/>
<polygon fill="#000000" stroke="#000000" points="754.1447,-308.4441 758.4346,-298.7565 749.0398,-303.6545 754.1447,-308.4441"/>
</g>
<!-- settings_adc&#45;&gt;output -->
<g id="edge7" class="edge">
<title>settings_adc&#45;&gt;output</title>
<path fill="none" stroke="#000000" d="M627.9973,-314.2126C664.0359,-306.2341 701.2801,-297.9887 729.0652,-291.8374"/>
<polygon fill="#000000" stroke="#000000" points="730.1367,-295.185 739.1437,-289.6061 728.6236,-288.3504 730.1367,-295.185"/>
</g>
<!-- settings_hbv&#45;&gt;output -->
<g id="edge8" class="edge">
<title>settings_hbv&#45;&gt;output</title>
<path fill="none" stroke="#000000" d="M627.9973,-250.3334C664.0359,-258.1767 701.2801,-266.2823 729.0652,-272.3294"/>
<polygon fill="#000000" stroke="#000000" points="728.6281,-275.8161 739.1437,-274.5228 730.1168,-268.9762 728.6281,-275.8161"/>
</g>
<!-- Aggregated output -->
<g id="node10" class="node">
<title>Aggregated output</title>
<ellipse fill="none" stroke="#000000" cx="1010.1926" cy="-129" rx="83.3857" ry="18"/>
<text text-anchor="middle" x="1010.1926" y="-125.3" font-family="Helvetica,sans-Serif" font-size="14.00" fill="#000000">Aggregated output</text>
</g>
<!-- output&#45;&gt;Aggregated output -->
<g id="edge12" class="edge">
<title>output&#45;&gt;Aggregated output</title>
<path fill="none" stroke="#000000" d="M796.1951,-267.3297C837.6735,-240.5177 925.9733,-183.44 975.1975,-151.6211"/>
<polygon fill="#000000" stroke="#000000" points="977.1246,-154.5431 983.6228,-146.175 973.3245,-148.6643 977.1246,-154.5431"/>
</g>
<!-- output_other -->
<g id="node9" class="node">
<title>output_other</title>
<polygon fill="none" stroke="#000000" points="656,-17 656,-53 891,-53 891,-17 656,-17"/>
<text text-anchor="middle" x="690.5" y="-31.3" font-family="Helvetica,sans-Serif" font-size="14.00" fill="#000000">Output 1</text>
<polyline fill="none" stroke="#000000" points="725,-17 725,-53 "/>
<text text-anchor="middle" x="759.5" y="-31.3" font-family="Helvetica,sans-Serif" font-size="14.00" fill="#000000">Output 2</text>
<polyline fill="none" stroke="#000000" points="794,-17 794,-53 "/>
<text text-anchor="middle" x="808" y="-31.3" font-family="Helvetica,sans-Serif" font-size="14.00" fill="#000000">...</text>
<polyline fill="none" stroke="#000000" points="822,-17 822,-53 "/>
<text text-anchor="middle" x="856.5" y="-31.3" font-family="Helvetica,sans-Serif" font-size="14.00" fill="#000000">Output n</text>
</g>
<!-- output_other&#45;&gt;Aggregated output -->
<g id="edge11" class="edge">
<title>output_other&#45;&gt;Aggregated output</title>
<path fill="none" stroke="#000000" d="M898.9993,-84.8407C920.8888,-93.5339 942.4507,-102.097 960.6751,-109.3346"/>
<polygon fill="#000000" stroke="#000000" points="959.5253,-112.6439 970.1111,-113.082 962.109,-106.1381 959.5253,-112.6439"/>
</g>
</g>
</svg>
