<?xml version="1.0" encoding="UTF-8" standalone="no"?>
<!DOCTYPE svg PUBLIC "-//W3C//DTD SVG 1.1//EN"
 "http://www.w3.org/Graphics/SVG/1.1/DTD/svg11.dtd">
<!-- Generated by graphviz version 2.40.1 (20161225.0304)
 -->
<!-- Title: G Pages: 1 -->
<svg width="1101pt" height="593pt"
 viewBox="0.00 0.00 1101.39 592.78" xmlns="http://www.w3.org/2000/svg" xmlns:xlink="http://www.w3.org/1999/xlink">
<g id="graph0" class="graph" transform="scale(1 1) rotate(0) translate(4 588.7808)">
<title>G</title>
<polygon fill="#ffffff" stroke="transparent" points="-4,4 -4,-588.7808 1097.3852,-588.7808 1097.3852,4 -4,4"/>
<g id="clust1" class="cluster">
<title>cluster_main</title>
<polygon fill="none" stroke="#000000" points="8,-93 8,-562 819.1967,-562 819.1967,-93 8,-93"/>
</g>
<g id="clust2" class="cluster">
<title>cluster_0</title>
<polygon fill="#d3d3d3" stroke="#d3d3d3" points="16,-189 16,-324 162,-324 162,-189 16,-189"/>
<text text-anchor="middle" x="89" y="-308.8" font-family="Helvetica,sans-Serif" font-size="14.00" fill="#000000">Input data</text>
</g>
<g id="clust3" class="cluster">
<title>cluster_1</title>
<polygon fill="#d3d3d3" stroke="#d3d3d3" points="386,-435 386,-544 628,-544 628,-435 386,-435"/>
<text text-anchor="middle" x="507" y="-528.8" font-family="Helvetica,sans-Serif" font-size="14.00" fill="#000000">PyRadiomics settings for T2W</text>
</g>
<g id="clust4" class="cluster">
<title>cluster_2</title>
<polygon fill="#d3d3d3" stroke="#d3d3d3" points="386,-318 386,-427 628,-427 628,-318 386,-318"/>
<text text-anchor="middle" x="507" y="-411.8" font-family="Helvetica,sans-Serif" font-size="14.00" fill="#000000">PyRadiomics settings for ADC</text>
</g>
<g id="clust5" class="cluster">
<title>cluster_3</title>
<polygon fill="#d3d3d3" stroke="#d3d3d3" points="386,-201 386,-310 628,-310 628,-201 386,-201"/>
<text text-anchor="middle" x="507" y="-294.8" font-family="Helvetica,sans-Serif" font-size="14.00" fill="#000000">PyRadiomics settings for HBV</text>
</g>
<g id="clust6" class="cluster">
<title>cluster_4</title>
<polygon fill="#d3d3d3" stroke="#d3d3d3" points="648,-8 648,-85 899,-85 899,-8 648,-8"/>
<text text-anchor="middle" x="773.5" y="-69.8" font-family="Helvetica,sans-Serif" font-size="14.00" fill="#000000">Outputs from other input data</text>
</g>
<!-- mask -->
<g id="node1" class="node">
<title>mask</title>
<polygon fill="none" stroke="#000000" points="150,-235 28,-235 28,-197 150,-197 150,-235"/>
<text text-anchor="middle" x="89" y="-219.8" font-family="Helvetica,sans-Serif" font-size="14.00" fill="#000000">Mask with</text>
<text text-anchor="middle" x="89" y="-204.8" font-family="Helvetica,sans-Serif" font-size="14.00" fill="#000000">annotated lesions</text>
</g>
<!-- output -->
<g id="node8" class="node">
<title>output</title>
<ellipse fill="none" stroke="#000000" cx="773.5" cy="-244" rx="37.8943" ry="18"/>
<text text-anchor="middle" x="773.5" y="-240.3" font-family="Helvetica,sans-Serif" font-size="14.00" fill="#000000">Output</text>
</g>
<!-- mask&#45;&gt;output -->
<g id="edge11" class="edge">
<title>mask&#45;&gt;output</title>
<path fill="none" stroke="#000000" d="M122.9514,-196.885C209.7459,-150.6575 445.7381,-41.6439 628,-112 683.4956,-133.4222 730.91,-186.9256 755.495,-218.8523"/>
<polygon fill="#000000" stroke="#000000" points="752.714,-220.9777 761.5284,-226.8562 758.3038,-216.764 752.714,-220.9777"/>
</g>
<!-- dataset -->
<g id="node2" class="node">
<title>dataset</title>
<polygon fill="none" stroke="#000000" points="24,-254 24,-292 154,-292 154,-254 24,-254"/>
<text text-anchor="middle" x="89" y="-276.8" font-family="Helvetica,sans-Serif" font-size="14.00" fill="#000000">MRI sequences</text>
<text text-anchor="middle" x="89" y="-261.8" font-family="Helvetica,sans-Serif" font-size="14.00" fill="#000000"> (T2W, ADC, HBV)</text>
</g>
<!-- spacing -->
<g id="node3" class="node">
<title>spacing</title>
<polygon fill="none" stroke="#000000" points="433.5,-121.5 433.5,-190.5 580.5,-190.5 580.5,-121.5 433.5,-121.5"/>
<text text-anchor="middle" x="484" y="-152.3" font-family="Helvetica,sans-Serif" font-size="14.00" fill="#000000">Voxel spacing</text>
<polyline fill="none" stroke="#000000" points="534.5,-121.5 534.5,-190.5 "/>
<text text-anchor="middle" x="557.5" y="-175.3" font-family="Helvetica,sans-Serif" font-size="14.00" fill="#000000">T2W</text>
<polyline fill="none" stroke="#000000" points="534.5,-167.5 580.5,-167.5 "/>
<text text-anchor="middle" x="557.5" y="-152.3" font-family="Helvetica,sans-Serif" font-size="14.00" fill="#000000">ADC</text>
<polyline fill="none" stroke="#000000" points="534.5,-144.5 580.5,-144.5 "/>
<text text-anchor="middle" x="557.5" y="-129.3" font-family="Helvetica,sans-Serif" font-size="14.00" fill="#000000">HBV</text>
</g>
<!-- dataset&#45;&gt;spacing -->
<g id="edge1" class="edge">
<title>dataset&#45;&gt;spacing</title>
<path fill="none" stroke="#000000" d="M154.3125,-254.7188C226.8672,-234.4104 344.1998,-201.5685 423.4051,-179.3986"/>
<polygon fill="#000000" stroke="#000000" points="424.6657,-182.6803 433.3522,-176.6143 422.7788,-175.9394 424.6657,-182.6803"/>
</g>
<!-- voxel_information -->
<g id="node4" class="node">
<title>voxel_information</title>
<polygon fill="none" stroke="#000000" points="190,-279.5 190,-348.5 358,-348.5 358,-279.5 190,-279.5"/>
<text text-anchor="middle" x="251" y="-310.3" font-family="Helvetica,sans-Serif" font-size="14.00" fill="#000000">Voxel information</text>
<polyline fill="none" stroke="#000000" points="312,-279.5 312,-348.5 "/>
<text text-anchor="middle" x="335" y="-333.3" font-family="Helvetica,sans-Serif" font-size="14.00" fill="#000000">T2W</text>
<polyline fill="none" stroke="#000000" points="312,-325.5 358,-325.5 "/>
<text text-anchor="middle" x="335" y="-310.3" font-family="Helvetica,sans-Serif" font-size="14.00" fill="#000000">ADC</text>
<polyline fill="none" stroke="#000000" points="312,-302.5 358,-302.5 "/>
<text text-anchor="middle" x="335" y="-287.3" font-family="Helvetica,sans-Serif" font-size="14.00" fill="#000000">HBV</text>
</g>
<!-- dataset&#45;&gt;voxel_information -->
<g id="edge2" class="edge">
<title>dataset&#45;&gt;voxel_information</title>
<path fill="none" stroke="#000000" d="M154.2241,-287.4551C162.6138,-289.3144 171.3323,-291.2466 180.0679,-293.1826"/>
<polygon fill="#000000" stroke="#000000" points="179.4008,-296.6196 189.9212,-295.3663 180.9154,-289.7854 179.4008,-296.6196"/>
</g>
<!-- dataset&#45;&gt;output -->
<g id="edge9" class="edge">
<title>dataset&#45;&gt;output</title>
<path fill="none" stroke="#000000" d="M101.7912,-292.3682C138.3667,-345.7455 249.584,-494.5427 386,-548 486.1411,-587.2423 536.9989,-605.3324 628,-548 727.2123,-485.4944 760.2578,-334.5508 769.9315,-271.9397"/>
<polygon fill="#000000" stroke="#000000" points="773.402,-272.3953 771.384,-261.9945 766.4755,-271.3836 773.402,-272.3953"/>
</g>
<!-- spacing&#45;&gt;output -->
<g id="edge10" class="edge">
<title>spacing:f0&#45;&gt;output</title>
<path fill="none" stroke="#000000" d="M581,-179C639.3701,-179 702.7112,-206.1585 740.2085,-225.3654"/>
<polygon fill="#000000" stroke="#000000" points="738.6835,-228.5177 749.1661,-230.0559 741.9307,-222.3164 738.6835,-228.5177"/>
</g>
<!-- settings_t2w -->
<g id="node5" class="node">
<title>settings_t2w</title>
<polygon fill="none" stroke="#000000" points="394,-443.5 394,-512.5 620,-512.5 620,-443.5 394,-443.5"/>
<text text-anchor="middle" x="434.5" y="-497.3" font-family="Helvetica,sans-Serif" font-size="14.00" fill="#000000">Original</text>
<polyline fill="none" stroke="#000000" points="475,-489.5 475,-512.5 "/>
<text text-anchor="middle" x="517" y="-497.3" font-family="Helvetica,sans-Serif" font-size="14.00" fill="#000000">Wavelet</text>
<polyline fill="none" stroke="#000000" points="559,-489.5 559,-512.5 "/>
<text text-anchor="middle" x="589.5" y="-497.3" font-family="Helvetica,sans-Serif" font-size="14.00" fill="#000000">LoG</text>
<polyline fill="none" stroke="#000000" points="394,-489.5 620,-489.5 "/>
<text text-anchor="middle" x="424" y="-474.3" font-family="Helvetica,sans-Serif" font-size="14.00" fill="#000000">Square</text>
<polyline fill="none" stroke="#000000" points="454,-466.5 454,-489.5 "/>
<text text-anchor="middle" x="498.5" y="-474.3" font-family="Helvetica,sans-Serif" font-size="14.00" fill="#000000">SquareRoot</text>
<polyline fill="none" stroke="#000000" points="543,-466.5 543,-489.5 "/>
<text text-anchor="middle" x="581.5" y="-474.3" font-family="Helvetica,sans-Serif" font-size="14.00" fill="#000000">Logarithm</text>
<polyline fill="none" stroke="#000000" points="394,-466.5 620,-466.5 "/>
<text text-anchor="middle" x="439" y="-451.3" font-family="Helvetica,sans-Serif" font-size="14.00" fill="#000000">Exponential</text>
<polyline fill="none" stroke="#000000" points="484,-443.5 484,-466.5 "/>
<text text-anchor="middle" x="520.5" y="-451.3" font-family="Helvetica,sans-Serif" font-size="14.00" fill="#000000">Gradient</text>
<polyline fill="none" stroke="#000000" points="557,-443.5 557,-466.5 "/>
<text text-anchor="middle" x="588.5" y="-451.3" font-family="Helvetica,sans-Serif" font-size="14.00" fill="#000000">LBP2D</text>
</g>
<!-- voxel_information&#45;&gt;settings_t2w -->
<g id="edge3" class="edge">
<title>voxel_information:f0&#45;&gt;settings_t2w</title>
<path fill="none" stroke="#000000" d="M358,-337C398.3565,-337 362.6611,-390.0984 383.7079,-426.5856"/>
<polygon fill="#000000" stroke="#000000" points="381.173,-429.0444 389.9322,-435.0048 386.8018,-424.883 381.173,-429.0444"/>
</g>
<!-- settings_adc -->
<g id="node6" class="node">
<title>settings_adc</title>
<polygon fill="none" stroke="#000000" points="394,-326.5 394,-395.5 620,-395.5 620,-326.5 394,-326.5"/>
<text text-anchor="middle" x="434.5" y="-380.3" font-family="Helvetica,sans-Serif" font-size="14.00" fill="#000000">Original</text>
<polyline fill="none" stroke="#000000" points="475,-372.5 475,-395.5 "/>
<text text-anchor="middle" x="517" y="-380.3" font-family="Helvetica,sans-Serif" font-size="14.00" fill="#000000">Wavelet</text>
<polyline fill="none" stroke="#000000" points="559,-372.5 559,-395.5 "/>
<text text-anchor="middle" x="589.5" y="-380.3" font-family="Helvetica,sans-Serif" font-size="14.00" fill="#000000">LoG</text>
<polyline fill="none" stroke="#000000" points="394,-372.5 620,-372.5 "/>
<text text-anchor="middle" x="424" y="-357.3" font-family="Helvetica,sans-Serif" font-size="14.00" fill="#000000">Square</text>
<polyline fill="none" stroke="#000000" points="454,-349.5 454,-372.5 "/>
<text text-anchor="middle" x="498.5" y="-357.3" font-family="Helvetica,sans-Serif" font-size="14.00" fill="#000000">SquareRoot</text>
<polyline fill="none" stroke="#000000" points="543,-349.5 543,-372.5 "/>
<text text-anchor="middle" x="581.5" y="-357.3" font-family="Helvetica,sans-Serif" font-size="14.00" fill="#000000">Logarithm</text>
<polyline fill="none" stroke="#000000" points="394,-349.5 620,-349.5 "/>
<text text-anchor="middle" x="439" y="-334.3" font-family="Helvetica,sans-Serif" font-size="14.00" fill="#000000">Exponential</text>
<polyline fill="none" stroke="#000000" points="484,-326.5 484,-349.5 "/>
<text text-anchor="middle" x="520.5" y="-334.3" font-family="Helvetica,sans-Serif" font-size="14.00" fill="#000000">Gradient</text>
<polyline fill="none" stroke="#000000" points="557,-326.5 557,-349.5 "/>
<text text-anchor="middle" x="588.5" y="-334.3" font-family="Helvetica,sans-Serif" font-size="14.00" fill="#000000">LBP2D</text>
</g>
<!-- voxel_information&#45;&gt;settings_adc -->
<g id="edge4" class="edge">
<title>voxel_information:f1&#45;&gt;settings_adc</title>
<path fill="none" stroke="#000000" d="M358,-314C367.155,-314 376.4859,-314.817 385.7872,-316.2355"/>
<polygon fill="#000000" stroke="#000000" points="385.4047,-319.7217 395.8588,-318.0007 386.6132,-312.8268 385.4047,-319.7217"/>
</g>
<!-- settings_hbv -->
<g id="node7" class="node">
<title>settings_hbv</title>
<polygon fill="none" stroke="#000000" points="394,-209.5 394,-278.5 620,-278.5 620,-209.5 394,-209.5"/>
<text text-anchor="middle" x="434.5" y="-263.3" font-family="Helvetica,sans-Serif" font-size="14.00" fill="#000000">Original</text>
<polyline fill="none" stroke="#000000" points="475,-255.5 475,-278.5 "/>
<text text-anchor="middle" x="517" y="-263.3" font-family="Helvetica,sans-Serif" font-size="14.00" fill="#000000">Wavelet</text>
<polyline fill="none" stroke="#000000" points="559,-255.5 559,-278.5 "/>
<text text-anchor="middle" x="589.5" y="-263.3" font-family="Helvetica,sans-Serif" font-size="14.00" fill="#000000">LoG</text>
<polyline fill="none" stroke="#000000" points="394,-255.5 620,-255.5 "/>
<text text-anchor="middle" x="424" y="-240.3" font-family="Helvetica,sans-Serif" font-size="14.00" fill="#000000">Square</text>
<polyline fill="none" stroke="#000000" points="454,-232.5 454,-255.5 "/>
<text text-anchor="middle" x="498.5" y="-240.3" font-family="Helvetica,sans-Serif" font-size="14.00" fill="#000000">SquareRoot</text>
<polyline fill="none" stroke="#000000" points="543,-232.5 543,-255.5 "/>
<text text-anchor="middle" x="581.5" y="-240.3" font-family="Helvetica,sans-Serif" font-size="14.00" fill="#000000">Logarithm</text>
<polyline fill="none" stroke="#000000" points="394,-232.5 620,-232.5 "/>
<text text-anchor="middle" x="439" y="-217.3" font-family="Helvetica,sans-Serif" font-size="14.00" fill="#000000">Exponential</text>
<polyline fill="none" stroke="#000000" points="484,-209.5 484,-232.5 "/>
<text text-anchor="middle" x="520.5" y="-217.3" font-family="Helvetica,sans-Serif" font-size="14.00" fill="#000000">Gradient</text>
<polyline fill="none" stroke="#000000" points="557,-209.5 557,-232.5 "/>
<text text-anchor="middle" x="588.5" y="-217.3" font-family="Helvetica,sans-Serif" font-size="14.00" fill="#000000">LBP2D</text>
</g>
<!-- voxel_information&#45;&gt;settings_hbv -->
<g id="edge5" class="edge">
<title>voxel_information:f2&#45;&gt;settings_hbv</title>
<path fill="none" stroke="#000000" d="M358,-291C363.9096,-291 369.8926,-290.6596 375.8936,-290.0367"/>
<polygon fill="#000000" stroke="#000000" points="376.5305,-293.4836 386.0001,-288.7319 375.6342,-286.5412 376.5305,-293.4836"/>
</g>
<!-- settings_t2w&#45;&gt;output -->
<g id="edge6" class="edge">
<title>settings_t2w&#45;&gt;output</title>
<path fill="none" stroke="#000000" d="M622.3544,-435.0048C624.2769,-433.7041 626.1609,-432.3694 628,-431 688.173,-386.1957 736.4563,-310.3204 759.2506,-270.3851"/>
<polygon fill="#000000" stroke="#000000" points="762.3909,-271.9411 764.2343,-261.5078 756.287,-268.5143 762.3909,-271.9411"/>
</g>
<!-- settings_adc&#45;&gt;output -->
<g id="edge7" class="edge">
<title>settings_adc&#45;&gt;output</title>
<path fill="none" stroke="#000000" d="M618.6539,-318.0025C621.8094,-316.668 624.9302,-315.3322 628,-314 666.2856,-297.3848 709.253,-276.4188 738.5065,-261.7828"/>
<polygon fill="#000000" stroke="#000000" points="740.1334,-264.8824 747.4991,-257.2669 736.992,-258.6269 740.1334,-264.8824"/>
</g>
<!-- settings_hbv&#45;&gt;output -->
<g id="edge8" class="edge">
<title>settings_hbv&#45;&gt;output</title>
<path fill="none" stroke="#000000" d="M627.9971,-244C662.6306,-244 698.3775,-244 725.7726,-244"/>
<polygon fill="#000000" stroke="#000000" points="725.7854,-247.5001 735.7854,-244 725.7853,-240.5001 725.7854,-247.5001"/>
</g>
<!-- Aggregated output -->
<g id="node10" class="node">
<title>Aggregated output</title>
<ellipse fill="none" stroke="#000000" cx="1010.1926" cy="-139" rx="83.3857" ry="18"/>
<text text-anchor="middle" x="1010.1926" y="-135.3" font-family="Helvetica,sans-Serif" font-size="14.00" fill="#000000">Aggregated output</text>
</g>
<!-- output&#45;&gt;Aggregated output -->
<g id="edge13" class="edge">
<title>output&#45;&gt;Aggregated output</title>
<path fill="none" stroke="#000000" d="M801.5812,-231.5428C841.7621,-213.718 916.121,-180.7314 964.3479,-159.3373"/>
<polygon fill="#000000" stroke="#000000" points="965.9054,-162.4754 973.627,-155.221 963.0668,-156.0768 965.9054,-162.4754"/>
</g>
<!-- output_other -->
<g id="node9" class="node">
<title>output_other</title>
<polygon fill="none" stroke="#000000" points="656,-17 656,-53 891,-53 891,-17 656,-17"/>
<text text-anchor="middle" x="690.5" y="-31.3" font-family="Helvetica,sans-Serif" font-size="14.00" fill="#000000">Output 1</text>
<polyline fill="none" stroke="#000000" points="725,-17 725,-53 "/>
<text text-anchor="middle" x="759.5" y="-31.3" font-family="Helvetica,sans-Serif" font-size="14.00" fill="#000000">Output 2</text>
<polyline fill="none" stroke="#000000" points="794,-17 794,-53 "/>
<text text-anchor="middle" x="808" y="-31.3" font-family="Helvetica,sans-Serif" font-size="14.00" fill="#000000">...</text>
<polyline fill="none" stroke="#000000" points="822,-17 822,-53 "/>
<text text-anchor="middle" x="856.5" y="-31.3" font-family="Helvetica,sans-Serif" font-size="14.00" fill="#000000">Output n</text>
</g>
<!-- output_other&#45;&gt;Aggregated output -->
<g id="edge12" class="edge">
<title>output_other&#45;&gt;Aggregated output</title>
<path fill="none" stroke="#000000" d="M889.8806,-84.9983C892.9534,-86.3434 895.9976,-87.6791 899,-89 920.7429,-98.5656 944.7915,-109.3534 964.9455,-118.4536"/>
<polygon fill="#000000" stroke="#000000" points="963.6494,-121.7086 974.2033,-122.6386 966.5329,-115.33 963.6494,-121.7086"/>
</g>
</g>
</svg>
